<?xml version="1.0" encoding="UTF-8" standalone="no"?>
<!-- Created with Inkscape (http://www.inkscape.org/) -->

<svg
   width="4.7236228mm"
   height="5.454659mm"
   viewBox="0 0 4.7236228 5.454659"
   version="1.1"
   id="svg1"
   xmlns="http://www.w3.org/2000/svg"
   xmlns:svg="http://www.w3.org/2000/svg">
  <defs
     id="defs1" />
  <g
     id="layer1"
     transform="translate(-45.77292,-110.33132)">
    <path
       style="fill:#ffffff"
       d="m 2.228,0.5 c 0,-0.112 0.092,-0.204 0.204,-0.204 0.112,0 0.204,0.092 0.204,0.204 0,0.112 -0.092,0.204 -0.204,0.204 C 2.32,0.704 2.228,0.612 2.228,0.5 Z m 0,-1 c 0,-0.112 0.092,-0.204 0.204,-0.204 0.112,0 0.204,0.092 0.204,0.204 0,0.112 -0.092,0.204 -0.204,0.204 -0.112,0 -0.204,-0.092 -0.204,-0.204 z m -1.3,-0.552 C 1.616,-1.052 2.1,-0.7 2.1,-0.048 2.1,1.004 1.048,1.608 0.036,2.036 0.024,2.048 0.012,2.052 0,2.052 -0.028,2.052 -0.052,2.028 -0.052,2 c 0,-0.012 0.004,-0.024 0.016,-0.036 0.808,-0.472 1.648,-1.06 1.648,-1.972 0,-0.48 -0.252,-0.94 -0.684,-0.94 -0.296,0 -0.516,0.216 -0.616,0.504 0.044,-0.02 0.088,-0.032 0.136,-0.032 0.22,0 0.4,0.18 0.4,0.4 0,0.232 -0.176,0.424 -0.4,0.424 C 0.208,0.348 0,0.16 0,-0.076 0,-0.608 0.408,-1.052 0.928,-1.052 Z"
       transform="matrix(1.7573,0,0,1.7573,45.8643,112.18)"
       id="g655" />
  </g>
</svg>
