<?xml version="1.0" encoding="UTF-8" standalone="no"?>
<!-- Created with Inkscape (http://www.inkscape.org/) -->

<svg
   width="1.2722845mm"
   height="5.3703051mm"
   viewBox="0 0 1.2722845 5.3703051"
   version="1.1"
   id="svg1"
   xmlns="http://www.w3.org/2000/svg"
   xmlns:svg="http://www.w3.org/2000/svg">
  <defs
     id="defs1" />
  <g
     id="layer1"
     transform="translate(-149.48959,-151.07709)">
    <g
       transform="matrix(1.7572987,0,0,1.7572987,149.53879,153.76224)"
       id="g439">
      <path
         style="fill:#ffffff"
         transform="scale(0.004,-0.004)"
         d="m -7,375 c 8,4 17,7 25,7 8,0 16,-3 24,-7 l -2,-183 106,20 h 3 c 10,0 18,-7 18,-17 l 7,-570 c -8,-4 -17,-7 -25,-7 -8,0 -16,3 -24,7 l 2,183 -106,-20 h -3 c -10,0 -18,7 -18,17 z M 131,112 39,95 l -3,-207 92,17 z"
         fill="currentColor"
         id="path438" />
    </g>
  </g>
</svg>
