<?xml version="1.0" encoding="UTF-8" standalone="no"?>
<!-- Created with Inkscape (http://www.inkscape.org/) -->

<svg
   width="1.9339999mm"
   height="5.2730002mm"
   viewBox="0 0 1.9339999 5.2730003"
   version="1.1"
   id="svg1"
   xmlns="http://www.w3.org/2000/svg"
   xmlns:svg="http://www.w3.org/2000/svg">
  <defs
     id="defs1" />
  <path
     d="m 0.001,1.8 c 0,-0.056 0.035,-0.105 0.091,-0.127 L 0.416,1.554 0.415,0.443 c 0,-0.07 0.056,-0.134 0.127,-0.134 0.07,0 0.133,0.064 0.133,0.134 V 1.462 L 1.258,1.244 1.259,0.134 C 1.259,0.064 1.322,0 1.393,0 1.463,0 1.519,0.064 1.519,0.134 V 1.153 L 1.744,1.069 C 1.758,1.062 1.779,1.062 1.793,1.062 c 0.077,0 0.141,0.063 0.141,0.14 v 0.422 c 0,0.056 -0.035,0.112 -0.091,0.134 L 1.519,1.87 V 2.995 L 1.744,2.918 C 1.758,2.911 1.779,2.911 1.793,2.911 c 0.077,0 0.141,0.063 0.141,0.14 V 3.473 C 1.934,3.529 1.899,3.578 1.843,3.6 L 1.519,3.719 v 1.11 c 0,0.07 -0.056,0.134 -0.127,0.134 -0.07,0 -0.133,-0.064 -0.133,-0.134 V 3.81 L 0.676,4.028 0.675,5.139 c 0,0.07 -0.063,0.134 -0.134,0.134 -0.07,0 -0.126,-0.064 -0.126,-0.134 V 4.12 L 0.19,4.204 C 0.176,4.211 0.155,4.211 0.141,4.211 0.064,4.211 0,4.148 0,4.071 L 0.001,3.649 c 0,-0.056 0.035,-0.112 0.091,-0.134 L 0.416,3.403 0.415,2.278 0.19,2.355 C 0.176,2.362 0.155,2.362 0.141,2.362 0.064,2.362 0.001,2.299 0.001,2.222 Z M 1.259,1.969 0.675,2.179 V 3.304 L 1.258,3.093 Z"
     style="fill:#ffffff"
     id="layer1" />
</svg>
